<svg data-v-423bf9ae="" xmlns="http://www.w3.org/2000/svg" viewBox="0 0 605 190" class="iconLeft"><!----><!----><!----><g data-v-423bf9ae="" id="60dadfc6-59cb-41e0-a671-d9ec5cc19d4d" fill="black" transform="matrix(5.60747673547115,0,0,5.60747673547115,209.43589430268088,48.09105308027348)"><path d="M5.43 13.71L5.43 13.71Q3.89 13.71 2.78 13.08L2.78 13.08L2.78 13.08Q1.67 12.45 1.08 11.29L1.08 11.29L1.08 11.29Q0.49 10.14 0.49 8.60L0.49 8.60L0.49 8.60Q0.49 7.08 1.14 5.93L1.14 5.93L1.14 5.93Q1.79 4.77 2.95 4.14L2.95 4.14L2.95 4.14Q4.12 3.51 5.61 3.51L5.61 3.51L5.61 3.51Q6.37 3.51 7.08 3.67L7.08 3.67L7.08 3.67Q7.80 3.82 8.32 4.09L8.32 4.09L8.12 5.80L8.12 5.80Q6.90 5.24 5.61 5.24L5.61 5.24L5.61 5.24Q4.05 5.24 3.25 6.15L3.25 6.15L3.25 6.15Q2.45 7.07 2.45 8.57L2.45 8.57L2.45 8.57Q2.45 10.12 3.23 11.05L3.23 11.05L3.23 11.05Q4.02 11.98 5.50 11.98L5.50 11.98L5.50 11.98Q6.10 11.98 6.85 11.83L6.85 11.83L6.85 10.08L5.50 10.08L5.50 8.60L8.64 8.60L8.64 12.96L8.64 12.96Q8.09 13.29 7.25 13.50L7.25 13.50L7.25 13.50Q6.40 13.71 5.43 13.71L5.43 13.71ZM13.48 13.65L13.48 13.65Q12.26 13.65 11.40 13.15L11.40 13.15L11.40 13.15Q10.54 12.66 10.12 11.82L10.12 11.82L10.12 11.82Q9.69 10.99 9.69 9.97L9.69 9.97L9.69 9.97Q9.69 8.99 10.09 8.18L10.09 8.18L10.09 8.18Q10.50 7.36 11.27 6.88L11.27 6.88L11.27 6.88Q12.04 6.40 13.10 6.40L13.10 6.40L13.10 6.40Q14.08 6.40 14.76 6.80L14.76 6.80L14.76 6.80Q15.44 7.21 15.79 7.90L15.79 7.90L15.79 7.90Q16.13 8.58 16.13 9.44L16.13 9.44L16.13 9.44Q16.13 9.86 16.02 10.39L16.02 10.39L11.49 10.39L11.49 10.39Q11.63 11.31 12.22 11.77L12.22 11.77L12.22 11.77Q12.81 12.22 13.64 12.22L13.64 12.22L13.64 12.22Q14.77 12.22 15.74 11.65L15.74 11.65L15.82 13.12L15.82 13.12Q15.37 13.36 14.78 13.50L14.78 13.50L14.78 13.50Q14.18 13.65 13.48 13.65L13.48 13.65ZM11.54 9.21L14.36 9.21L14.36 9.21Q14.36 8.67 14.06 8.25L14.06 8.25L14.06 8.25Q13.75 7.83 13.10 7.83L13.10 7.83L13.10 7.83Q12.46 7.83 12.07 8.20L12.07 8.20L12.07 8.20Q11.68 8.58 11.54 9.21L11.54 9.21ZM18.83 13.65L18.83 13.65Q17.96 13.65 17.38 13.08L17.38 13.08L17.38 13.08Q16.80 12.52 16.80 11.55L16.80 11.55L16.80 11.55Q16.80 10.64 17.46 10.09L17.46 10.09L17.46 10.09Q18.12 9.53 19.01 9.30L19.01 9.30L19.01 9.30Q19.91 9.07 20.73 9.04L20.73 9.04L20.73 9.04Q20.71 8.43 20.42 8.16L20.42 8.16L20.42 8.16Q20.13 7.90 19.47 7.90L19.47 7.90L19.47 7.90Q19.01 7.90 18.57 8.02L18.57 8.02L18.57 8.02Q18.13 8.15 17.56 8.43L17.56 8.43L17.40 7.01L17.40 7.01Q18.68 6.40 19.95 6.40L19.95 6.40L19.95 6.40Q21.18 6.40 21.83 7.07L21.83 7.07L21.83 7.07Q22.48 7.74 22.48 9.21L22.48 9.21L22.48 11.10L22.48 11.10Q22.48 11.63 22.53 11.87L22.53 11.87L22.53 11.87Q22.58 12.10 22.70 12.16L22.70 12.16L22.70 12.16Q22.82 12.22 23.10 12.22L23.10 12.22L23.32 12.22L23.17 13.65L22.54 13.65L22.54 13.65Q21.97 13.65 21.57 13.43L21.57 13.43L21.57 13.43Q21.18 13.22 20.97 12.84L20.97 12.84L20.97 12.84Q20.64 13.22 20.05 13.43L20.05 13.43L20.05 13.43Q19.47 13.65 18.83 13.65L18.83 13.65ZM19.56 12.32L19.56 12.32Q19.82 12.32 20.16 12.19L20.16 12.19L20.16 12.19Q20.50 12.05 20.75 11.82L20.75 11.82L20.75 10.22L20.75 10.22Q19.91 10.26 19.26 10.58L19.26 10.58L19.26 10.58Q18.62 10.91 18.62 11.48L18.62 11.48L18.62 11.48Q18.62 11.91 18.84 12.12L18.84 12.12L18.84 12.12Q19.07 12.32 19.56 12.32L19.56 12.32ZM24.29 13.51L24.29 6.51L25.91 6.51L25.96 7.25L25.96 7.25Q26.26 6.90 26.75 6.64L26.75 6.64L26.75 6.64Q27.23 6.37 27.76 6.37L27.76 6.37L27.76 6.37Q27.93 6.37 28.07 6.40L28.07 6.40L27.94 8.11L27.94 8.11Q27.68 8.04 27.34 8.04L27.34 8.04L27.34 8.04Q26.91 8.04 26.54 8.24L26.54 8.24L26.54 8.24Q26.18 8.44 26.03 8.74L26.03 8.74L26.03 13.51L24.29 13.51ZM36.76 13.71L36.76 13.71Q35.28 13.71 34.14 13.08L34.14 13.08L34.14 13.08Q33.00 12.45 32.37 11.29L32.37 11.29L32.37 11.29Q31.74 10.14 31.74 8.61L31.74 8.61L31.74 8.61Q31.74 7.10 32.39 5.94L32.39 5.94L32.39 5.94Q33.04 4.79 34.20 4.15L34.20 4.15L34.20 4.15Q35.35 3.51 36.82 3.51L36.82 3.51L36.82 3.51Q38.23 3.51 39.35 4.09L39.35 4.09L39.16 5.80L39.16 5.80Q38.56 5.53 38.00 5.38L38.00 5.38L38.00 5.38Q37.45 5.24 36.81 5.24L36.81 5.24L36.81 5.24Q35.31 5.24 34.50 6.16L34.50 6.16L34.50 6.16Q33.70 7.08 33.70 8.61L33.70 8.61L33.70 8.61Q33.70 10.14 34.49 11.06L34.49 11.06L34.49 11.06Q35.28 11.98 36.76 11.98L36.76 11.98L36.76 11.98Q37.42 11.98 37.98 11.84L37.98 11.84L37.98 11.84Q38.53 11.70 39.16 11.42L39.16 11.42L39.35 13.13L39.35 13.13Q38.14 13.71 36.76 13.71L36.76 13.71ZM44.11 6.40L44.11 6.40Q45.44 6.40 46.09 7.26L46.09 7.26L46.09 7.26Q46.75 8.12 46.75 9.62L46.75 9.62L46.75 13.51L45.01 13.51L45.01 9.74L45.01 9.74Q45.01 8.75 44.69 8.29L44.69 8.29L44.69 8.29Q44.37 7.83 43.67 7.83L43.67 7.83L43.67 7.83Q42.84 7.83 42.31 8.43L42.31 8.43L42.31 13.51L40.57 13.51L40.57 3.01L42.31 3.01L42.31 6.96L42.31 6.96Q42.73 6.69 43.16 6.54L43.16 6.54L43.16 6.54Q43.60 6.40 44.11 6.40L44.11 6.40ZM51.67 13.65L51.67 13.65Q50.46 13.65 49.59 13.15L49.59 13.15L49.59 13.15Q48.73 12.66 48.31 11.82L48.31 11.82L48.31 11.82Q47.88 10.99 47.88 9.97L47.88 9.97L47.88 9.97Q47.88 8.99 48.29 8.18L48.29 8.18L48.29 8.18Q48.69 7.36 49.46 6.88L49.46 6.88L49.46 6.88Q50.23 6.40 51.30 6.40L51.30 6.40L51.30 6.40Q52.28 6.40 52.95 6.80L52.95 6.80L52.95 6.80Q53.63 7.21 53.98 7.90L53.98 7.90L53.98 7.90Q54.32 8.58 54.32 9.44L54.32 9.44L54.32 9.44Q54.32 9.86 54.21 10.39L54.21 10.39L49.69 10.39L49.69 10.39Q49.83 11.31 50.41 11.77L50.41 11.77L50.41 11.77Q51.00 12.22 51.83 12.22L51.83 12.22L51.83 12.22Q52.96 12.22 53.93 11.65L53.93 11.65L54.01 13.12L54.01 13.12Q53.56 13.36 52.97 13.50L52.97 13.50L52.97 13.50Q52.37 13.65 51.67 13.65L51.67 13.65ZM49.73 9.21L52.56 9.21L52.56 9.21Q52.56 8.67 52.25 8.25L52.25 8.25L52.25 8.25Q51.94 7.83 51.30 7.83L51.30 7.83L51.30 7.83Q50.65 7.83 50.26 8.20L50.26 8.20L50.26 8.20Q49.87 8.58 49.73 9.21L49.73 9.21ZM58.76 13.65L58.76 13.65Q57.60 13.65 56.76 13.17L56.76 13.17L56.76 13.17Q55.93 12.68 55.51 11.86L55.51 11.86L55.51 11.86Q55.09 11.03 55.09 10.02L55.09 10.02L55.09 10.02Q55.09 9.00 55.51 8.17L55.51 8.17L55.51 8.17Q55.93 7.34 56.77 6.85L56.77 6.85L56.77 6.85Q57.61 6.37 58.81 6.37L58.81 6.37L58.81 6.37Q59.89 6.37 60.69 6.82L60.69 6.82L60.55 8.22L60.55 8.22Q59.79 7.83 58.98 7.83L58.98 7.83L58.98 7.83Q57.99 7.83 57.43 8.43L57.43 8.43L57.43 8.43Q56.87 9.03 56.87 10.02L56.87 10.02L56.87 10.02Q56.87 10.98 57.44 11.60L57.44 11.60L57.44 11.60Q58.02 12.22 58.97 12.22L58.97 12.22L58.97 12.22Q59.77 12.22 60.56 11.76L60.56 11.76L60.72 13.23L60.72 13.23Q60.34 13.43 59.83 13.54L59.83 13.54L59.83 13.54Q59.32 13.65 58.76 13.65L58.76 13.65ZM61.87 13.51L61.87 3.01L63.60 3.01L63.60 9.38L65.77 6.51L67.73 6.51L65.18 9.87L67.79 13.51L65.83 13.51L63.60 10.40L63.60 13.51L61.87 13.51ZM68.89 10.61L68.89 10.21L68.74 3.71L70.48 3.71L70.32 10.21L70.32 10.61L68.89 10.61ZM68.70 13.51L68.70 11.61L70.52 11.61L70.52 13.51L68.70 13.51Z"></path></g><!----><g data-v-423bf9ae="" id="4c3dc374-dfbe-4163-834b-43f579a7d65d" transform="matrix(1.4527335272894966,0,0,1.4527335272894966,-1.810717846700257,-3.038012635903783)" stroke="none" fill="black"><path d="M44.54 2.36a12.422 12.422 0 0 0-12.423 12.423A12.422 12.422 0 0 0 44.54 27.205a12.422 12.422 0 0 0 12.423-12.422A12.422 12.422 0 0 0 44.539 2.36zm22.235 26.396c-.247 0-.52.03-.82.109-2.4.643-1.757 3.043-1.757 3.043l2.8 9.712-10.037 5.794V35.9a4.958 4.958 0 0 0-4.969-4.969H37.087a4.953 4.953 0 0 0-4.808 3.731h-10.1c-5.506 0-9.938 5.066-9.938 11.356v17.036c0 6.291 4.432 11.358 9.938 11.358h9.937v27.329s-5.142 11.577-8.027 18.995c-.027 0-.054 0-.08-.03-2.513-.948-19.071 8.178-22.421 10.05v2.35h132.291V87.615c-8.938-1.046-17.695.596-17.695.596s-14.187-3.018-21.801-3.075c-.788 0-1.506.02-2.13.08-1.968.203-5.13 1.967-8.63 4.417L73.176 47.478a4.337 4.337 0 0 0-.534-5.224s.01-.01.01-.02c.298-.517.41-1.096.443-1.633.064-1.074-.198-2.029-.198-2.029l-1.286-4.8c-.423-1.579-1.619-2.432-2.544-2.872l-.07-.286s-.493-1.837-2.224-1.867zm2.609 3.418c.56.404 1.1.994 1.328 1.846l1.286 4.8s.226.843.169 1.731a3.11 3.11 0 0 1-.253 1.081c-.074-.05-.148-.103-.225-.148zm.096 18.054L81.32 91.306c-3.51 2.634-7.165 5.739-10.19 8.527-.733-7.007-1.747-17.273-1.747-20.455 0-3.683-8.185-10.091-12.423-13.163v-8.76zM48.265 78.136c6.212 4.969 8.697 6.212 8.697 6.212l4.83 24.149c-2.391 0-6.064-1.387-9.736-2.774-2.28-.861-6.206 1.038-10.06 3.59l2.543-5.089z"></path></g><!----></svg>